# 3ds Max Wavefront OBJ Exporter v0.99 - (c)2007 guruware
# File Created: 17.04.2024 16:20:18

mtllib cajitas.mtl

#
# object wooden_box_obj
#

v  -0.0758 0.1757 -0.0967
v  -0.0756 0.1754 -0.0879
v  -0.0756 0.0239 -0.0879
v  0.0968 0.0031 -0.0966
v  -0.0968 0.0031 -0.0966
v  -0.0758 0.0235 -0.0967
v  -0.0758 0.0129 -0.0759
v  -0.0758 0.0030 -0.0758
v  0.0758 0.0030 -0.0758
v  0.0758 0.0235 -0.0967
v  -0.0968 0.0031 0.0966
v  0.0968 0.1961 0.0966
v  0.0968 0.1757 0.0762
v  0.0968 0.1757 -0.0762
v  -0.0758 0.0030 0.0758
v  0.0867 0.1753 0.0762
v  0.0867 0.1753 -0.0762
v  -0.0758 0.0129 0.0759
v  0.0758 0.0129 -0.0759
v  -0.0699 0.0072 -0.0838
v  0.0827 0.0069 0.0717
v  -0.0840 0.0068 -0.0697
v  -0.0698 0.0136 -0.0839
v  0.0828 0.0136 0.0717
v  0.0687 0.0068 0.0856
v  -0.0842 0.0136 -0.0698
v  -0.0968 0.1961 -0.0966
v  0.0968 0.0236 0.0762
v  0.0867 0.0240 0.0762
v  -0.0834 0.0283 -0.0922
v  0.0687 0.1842 -0.0926
v  -0.0691 0.0145 -0.0926
v  0.0756 0.0239 -0.0879
v  0.0830 0.1705 -0.0926
v  -0.0691 0.0143 -0.0859
v  -0.0835 0.0284 -0.0858
v  0.0688 0.1843 -0.0858
v  0.0968 0.1961 -0.0966
v  0.0758 0.1962 -0.0758
v  0.0758 0.0030 0.0758
v  0.0758 0.0129 0.0759
v  0.0968 0.0236 -0.0762
v  0.0867 0.0240 -0.0762
v  0.0758 0.1757 -0.0967
v  0.0756 0.1754 -0.0879
v  0.0928 0.1841 -0.0682
v  0.0864 0.1842 -0.0681
v  0.0864 0.0285 0.0844
v  0.0931 0.0286 0.0844
v  0.0931 0.1700 -0.0823
v  0.0931 0.0147 0.0703
v  0.0864 0.1700 -0.0825
v  0.0684 0.0136 0.0859
v  0.0968 0.0031 0.0966
v  0.0864 0.0144 0.0701
v  0.0832 0.1702 -0.0858
v  0.0758 0.0235 0.0967
v  -0.0867 0.1753 -0.0762
v  -0.0968 0.1757 -0.0762
v  -0.0867 0.0240 -0.0762
v  -0.0968 0.0236 -0.0762
v  0.0758 0.1757 0.0967
v  0.0756 0.0239 0.0879
v  -0.0758 0.1962 -0.0758
v  -0.0758 0.1864 -0.0759
v  0.0758 0.1864 -0.0759
v  -0.0867 0.1753 0.0762
v  -0.0968 0.1757 0.0762
v  -0.0758 0.1864 0.0759
v  -0.0758 0.1962 0.0758
v  -0.0698 0.1856 -0.0839
v  -0.0699 0.1920 -0.0838
v  0.0827 0.1923 0.0717
v  -0.0842 0.1857 -0.0698
v  0.0684 0.1856 0.0859
v  -0.0840 0.1924 -0.0697
v  0.0687 0.1924 0.0856
v  0.0842 0.0301 0.0943
v  -0.0712 0.1827 0.0946
v  0.0702 0.0160 0.0947
v  0.0843 0.0302 0.0879
v  -0.0713 0.1828 0.0879
v  -0.0756 0.0239 0.0879
v  0.0756 0.1754 0.0879
v  -0.0851 0.1687 0.0947
v  0.0702 0.0158 0.0880
v  -0.0758 0.0235 0.0967
v  -0.0756 0.1754 0.0879
v  -0.0758 0.1757 0.0967
v  -0.0867 0.0240 0.0762
v  -0.0968 0.0236 0.0762
v  0.0758 0.1864 0.0759
v  -0.0942 0.0286 -0.0824
v  -0.0939 0.1841 0.0702
v  -0.0875 0.0285 -0.0825
v  0.0758 0.1962 0.0758
v  -0.0943 0.0147 -0.0684
v  -0.0943 0.1700 0.0843
v  -0.0875 0.0144 -0.0682
v  -0.0876 0.1700 0.0844
v  -0.0875 0.1842 0.0701
v  -0.0968 0.1961 0.0966
v  -0.0854 0.1685 0.0879
v  0.0828 0.1856 0.0717
# 104 vertices

vn 0.9997 0.0000 -0.0236
vn 0.0000 0.0000 -1.0000
vn 0.0000 0.0157 0.9999
vn 0.0000 0.9992 -0.0393
vn 0.0000 -1.0000 0.0000
vn 1.0000 0.0000 0.0000
vn 0.0393 -0.9992 0.0000
vn 0.0157 -0.9998 -0.0157
vn 0.7147 -0.0236 -0.6990
vn 0.7149 0.0000 -0.6992
vn -0.7148 -0.0157 0.6991
vn -0.7141 -0.0471 0.6984
vn 0.0079 0.0000 -1.0000
vn -0.0157 0.0157 -0.9998
vn 0.7148 -0.6991 -0.0157
vn 0.7141 -0.6984 -0.0471
vn -0.7147 0.6990 -0.0236
vn -0.7149 0.6992 0.0000
vn 0.0000 1.0000 0.0000
vn -1.0000 0.0000 0.0000
vn 0.0393 0.9992 0.0000
vn -0.9997 0.0000 -0.0236
vn 0.0079 0.0000 1.0000
vn 0.0000 0.0157 -0.9999
vn 0.0000 -0.9992 -0.0393
vn 0.0236 0.6990 0.7147
vn 0.0000 0.6992 0.7149
vn 0.9998 0.0157 0.0157
vn 0.0157 -0.6991 -0.7148
vn 0.0471 -0.6984 -0.7141
vn 0.0000 0.0000 1.0000
vn -0.0079 0.0000 1.0000
vn -0.9997 0.0000 0.0236
vn 0.0000 -0.0157 0.9999
vn -0.0393 -0.9992 -0.0000
vn 0.7147 0.0236 -0.6990
vn -0.7148 0.0157 0.6991
vn -0.7102 0.0474 0.7024
vn 0.0157 0.9998 -0.0157
vn 0.0000 1.0000 -0.0079
vn 0.0157 0.0157 0.9998
vn 0.6990 0.7147 0.0236
vn 0.6992 0.7149 0.0000
vn -0.6991 -0.7148 0.0157
vn -0.6984 -0.7141 0.0471
vn 0.0000 0.9992 0.0393
vn 0.9997 0.0000 0.0236
vn -0.0079 0.0000 -1.0000
vn -0.0393 0.9992 0.0000
vn 0.0000 0.6992 -0.7149
vn -0.0236 0.6990 -0.7147
vn -0.9998 0.0157 -0.0157
vn -0.0471 -0.6984 0.7141
vn -0.0157 -0.6991 0.7148
vn 0.0000 -0.9992 0.0393
vn 0.0000 -0.0157 -0.9999
# 56 vertex normals

vt 0.7690 0.7800 0.0000
vt 0.7808 0.7804 0.0000
vt 0.7808 0.9784 0.0000
vt 0.2725 0.4756 0.0000
vt 0.5254 0.4756 0.0000
vt 0.4978 0.5022 0.0000
vt 0.7456 0.2808 0.0000
vt 0.7456 0.2935 0.0000
vt 0.5479 0.2935 0.0000
vt 0.9785 0.9900 0.0000
vt 0.7808 0.9900 0.0000
vt 0.5249 0.9900 0.0000
vt 0.2725 0.9900 0.0000
vt 0.2996 0.9626 0.0000
vt 0.5244 0.4653 0.0000
vt 0.4978 0.4385 0.0000
vt 0.4978 0.2393 0.0000
vt 0.7588 0.0825 0.0000
vt 0.7588 0.2803 0.0000
vt 0.7471 0.5339 0.0000
vt 0.7471 0.5471 0.0000
vt 0.5479 0.5471 0.0000
vt 0.7456 0.0820 0.0000
vt 0.5479 0.2808 0.0000
vt 0.8042 0.4756 0.0000
vt 0.8042 0.7599 0.0000
vt 0.7783 0.4756 0.0000
vt 0.8125 0.4756 0.0000
vt 0.8125 0.7601 0.0000
vt 0.7783 0.7601 0.0000
vt 0.7695 0.4756 0.0000
vt 0.5254 0.7275 0.0000
vt 0.2991 0.4385 0.0000
vt 0.7690 0.9789 0.0000
vt 0.7603 0.5464 0.0000
vt 0.7471 0.7446 0.0000
vt 0.9785 0.9784 0.0000
vt 0.0100 0.7371 0.0000
vt 0.2625 0.7371 0.0000
vt 0.2352 0.7645 0.0000
vt 0.5244 0.2129 0.0000
vt 0.5479 0.5339 0.0000
vt 0.2996 0.7645 0.0000
vt 0.2725 0.7371 0.0000
vt 0.2998 0.5022 0.0000
vt 0.4976 0.7645 0.0000
vt 0.5347 0.2803 0.0000
vt 0.5479 0.0820 0.0000
vt 0.2991 0.2393 0.0000
vt 0.2725 0.2129 0.0000
vt 0.5479 0.7446 0.0000
vt 0.5479 0.7578 0.0000
vt 0.2998 0.7009 0.0000
vt 0.9785 0.7804 0.0000
vt 0.9902 0.9789 0.0000
vt 0.5347 0.7451 0.0000
vt 0.4976 0.9626 0.0000
vt 0.2625 0.9900 0.0000
vt 0.2725 0.7275 0.0000
vt 0.7456 0.0693 0.0000
vt 0.7808 0.7688 0.0000
vt 0.9785 0.7688 0.0000
vt 0.5347 0.5464 0.0000
vt 0.7690 0.7601 0.0000
vt 0.5347 0.0825 0.0000
vt 0.5249 0.7371 0.0000
vt 0.2725 0.4653 0.0000
vt 0.7471 0.7578 0.0000
vt 0.5479 0.0693 0.0000
vt 0.9902 0.7800 0.0000
vt 0.7603 0.7451 0.0000
vt 0.4978 0.7009 0.0000
vt 0.2622 0.7275 0.0000
vt 0.0100 0.7275 0.0000
vt 0.2356 0.7002 0.0000
vt 0.7471 0.3149 0.0000
vt 0.7603 0.3145 0.0000
vt 0.7471 0.5125 0.0000
vt 0.0367 0.2393 0.0000
vt 0.0100 0.2129 0.0000
vt 0.2355 0.2393 0.0000
vt 0.7671 0.2983 0.0000
vt 0.7671 0.0996 0.0000
vt 0.7783 0.2983 0.0000
vt 0.7588 0.9771 0.0000
vt 0.7461 0.9771 0.0000
vt 0.7461 0.7789 0.0000
vt 0.2352 0.9626 0.0000
vt 0.5479 0.3149 0.0000
vt 0.7471 0.3018 0.0000
vt 0.0367 0.4385 0.0000
vt 0.7456 0.9900 0.0000
vt 0.5479 0.9771 0.0000
vt 0.0372 0.9626 0.0000
vt 0.9761 0.2983 0.0000
vt 0.7783 0.1001 0.0000
vt 0.9766 0.3096 0.0000
vt 0.7783 0.3096 0.0000
vt 0.2622 0.4746 0.0000
vt 0.9761 0.1001 0.0000
vt 0.9878 0.2983 0.0000
vt 0.2356 0.5022 0.0000
vt 0.0367 0.5022 0.0000
vt 0.5479 0.5125 0.0000
vt 0.5347 0.5129 0.0000
vt 0.2355 0.4385 0.0000
vt 0.2622 0.4653 0.0000
vt 0.5479 0.5256 0.0000
vt 0.7588 0.7789 0.0000
vt 0.5479 0.7789 0.0000
vt 0.5479 0.7661 0.0000
vt 0.7456 0.7661 0.0000
vt 0.5347 0.3145 0.0000
vt 0.0100 0.4653 0.0000
vt 0.0100 0.4746 0.0000
vt 0.9878 0.0996 0.0000
vt 0.5479 0.3018 0.0000
vt 0.0100 0.9900 0.0000
vt 0.5479 0.9900 0.0000
vt 0.7783 0.0884 0.0000
vt 0.9766 0.0884 0.0000
vt 0.5347 0.9771 0.0000
vt 0.5347 0.7789 0.0000
vt 0.7603 0.5129 0.0000
vt 0.2622 0.2129 0.0000
vt 0.0367 0.7002 0.0000
vt 0.7471 0.5256 0.0000
vt 0.0372 0.7645 0.0000
# 128 texture coords

o wooden_box_obj
g wooden_box_obj
usemtl lambert6SG
s off
f 1/1/1 2/2/1 3/3/1 
f 4/4/2 5/5/2 6/6/2 
f 7/7/3 8/8/3 9/9/3 
f 10/10/4 6/11/4 3/3/4 
f 11/12/5 5/13/5 8/14/5 
f 12/15/6 13/16/6 14/17/6 
f 15/18/6 8/19/6 7/7/6 
f 13/20/7 16/21/7 17/22/7 
f 18/23/5 7/7/5 19/24/5 
f 20/25/8 21/26/5 22/27/8 
f 20/25/9 23/28/9 24/29/10 
f 22/27/11 25/30/12 26/31/11 
f 5/5/2 27/32/2 6/6/2 
f 13/16/6 12/15/6 28/33/6 
f 6/34/1 1/1/1 3/3/1 
f 16/21/13 13/35/13 29/36/13 
f 30/25/14 31/26/2 32/27/14 
f 3/3/2 2/2/2 33/37/2 
f 32/27/15 34/30/16 35/31/15 
f 30/25/17 36/28/17 37/29/18 
f 16/21/6 29/36/6 17/22/6 
f 12/38/19 38/39/19 39/40/19 
f 38/41/6 12/15/6 14/17/6 
f 14/42/7 13/20/7 17/22/7 
f 9/43/5 8/14/5 4/44/5 
f 19/24/3 7/7/3 9/9/3 
f 10/45/2 4/4/2 6/6/2 
f 33/37/4 10/10/4 3/3/4 
f 9/43/5 4/44/5 40/46/5 
f 19/24/20 9/47/20 41/48/20 
f 42/49/6 28/33/6 4/50/6 
f 43/51/21 29/36/21 42/52/21 
f 10/45/2 44/53/2 4/4/2 
f 33/37/22 45/54/22 10/55/22 
f 42/49/6 4/50/6 14/17/6 
f 43/51/23 42/56/23 17/22/23 
f 29/36/6 43/51/6 17/22/6 
f 15/57/5 11/12/5 8/14/5 
f 18/23/6 15/18/6 7/7/6 
f 38/39/19 27/58/19 39/40/19 
f 27/32/2 38/59/2 44/53/2 
f 11/12/5 15/57/5 40/46/5 
f 15/60/24 18/23/24 41/48/24 
f 1/61/25 44/62/25 45/54/25 
f 46/25/26 47/28/26 48/29/27 
f 46/25/28 49/26/6 50/27/28 
f 50/27/29 51/30/30 52/31/29 
f 42/56/23 14/63/23 17/22/23 
f 4/50/6 38/41/6 14/17/6 
f 21/26/10 20/25/9 24/29/10 
f 21/26/5 25/30/5 22/27/8 
f 25/30/12 53/64/12 26/31/11 
f 41/48/5 18/23/5 19/24/5 
f 9/47/20 40/65/20 41/48/20 
f 4/44/5 54/66/5 40/46/5 
f 28/33/6 54/67/6 4/50/6 
f 29/36/21 28/68/21 42/52/21 
f 40/69/24 15/60/24 41/48/24 
f 54/66/5 11/12/5 40/46/5 
f 44/53/2 38/59/2 4/4/2 
f 45/54/22 44/70/22 10/55/22 
f 51/30/30 55/64/30 52/31/29 
f 49/26/6 51/30/6 50/27/28 
f 49/26/27 46/25/26 48/29/27 
f 2/2/2 45/54/2 33/37/2 
f 31/26/18 30/25/17 37/29/18 
f 34/30/16 56/64/16 35/31/15 
f 31/26/2 34/30/2 32/27/14 
f 13/35/13 28/71/13 29/36/13 
f 1/72/2 27/32/2 44/53/2 
f 2/2/25 1/61/25 45/54/25 
f 27/32/2 1/72/2 6/6/2 
f 8/14/5 5/13/5 4/44/5 
f 54/73/31 12/74/31 57/75/31 
f 58/76/32 59/77/32 60/78/32 
f 59/79/20 27/80/20 61/81/20 
f 12/15/6 54/67/6 28/33/6 
f 57/82/33 62/83/33 63/84/33 
f 64/85/34 65/86/34 66/87/34 
f 27/58/19 64/88/19 39/40/19 
f 58/76/35 67/89/35 59/90/35 
f 59/79/20 68/91/20 27/80/20 
f 65/86/6 64/92/6 69/93/6 
f 64/88/19 27/58/19 70/94/19 
f 71/28/36 72/25/36 73/26/10 
f 74/31/37 75/64/38 76/27/37 
f 76/27/39 77/30/40 72/25/39 
f 78/25/41 79/26/31 80/27/41 
f 78/25/42 81/28/42 82/29/43 
f 83/95/31 63/84/31 84/96/31 
f 80/27/44 85/30/45 86/31/44 
f 87/97/46 57/98/46 63/84/46 
f 11/99/31 54/73/31 57/75/31 
f 83/95/47 88/100/47 87/101/47 
f 87/102/31 89/103/31 11/99/31 
f 90/104/48 91/105/48 67/89/48 
f 91/106/20 11/107/20 68/91/20 
f 83/95/46 87/97/46 63/84/46 
f 87/102/31 11/99/31 57/75/31 
f 91/108/49 90/104/49 60/78/49 
f 11/107/20 91/106/20 61/81/20 
f 39/109/34 64/85/34 66/87/34 
f 66/87/19 65/86/19 92/110/19 
f 93/26/50 94/25/51 95/29/50 
f 96/111/20 39/112/20 66/87/20 
f 93/26/20 97/30/20 98/27/52 
f 97/30/53 99/64/53 100/31/54 
f 98/27/54 97/30/53 100/31/54 
f 94/25/52 93/26/20 98/27/52 
f 94/25/51 101/28/51 95/29/50 
f 67/89/20 58/76/20 90/104/20 
f 91/105/48 68/113/48 67/89/48 
f 11/107/20 102/114/20 68/91/20 
f 89/103/31 102/115/31 11/99/31 
f 88/100/47 89/116/47 87/101/47 
f 85/30/45 103/64/45 86/31/44 
f 79/26/31 85/30/31 80/27/41 
f 88/100/31 83/95/31 84/96/31 
f 79/26/43 78/25/42 82/29/43 
f 67/89/35 68/117/35 59/90/35 
f 68/91/20 102/114/20 27/80/20 
f 27/58/19 102/118/19 70/94/19 
f 64/92/6 70/119/6 69/93/6 
f 65/86/19 69/93/19 92/110/19 
f 62/120/55 89/121/55 88/100/55 
f 69/93/56 70/122/56 96/123/56 
f 12/74/31 102/115/31 89/103/31 
f 70/94/19 102/118/19 12/38/19 
f 58/76/20 60/78/20 90/104/20 
f 59/77/32 61/124/32 60/78/32 
f 27/80/20 5/125/20 61/81/20 
f 62/83/33 84/96/33 63/84/33 
f 12/74/31 62/126/31 57/75/31 
f 104/29/10 71/28/36 73/26/10 
f 75/64/38 77/30/38 76/27/37 
f 77/30/40 73/26/19 72/25/39 
f 61/127/49 91/108/49 60/78/49 
f 5/125/20 11/107/20 61/81/20 
f 92/110/20 96/111/20 66/87/20 
f 96/128/19 12/38/19 39/40/19 
f 84/96/55 62/120/55 88/100/55 
f 62/126/31 12/74/31 89/103/31 
f 92/110/56 69/93/56 96/123/56 
f 96/128/19 70/94/19 12/38/19 
# 0 polygons - 144 triangles

