# 3ds Max Wavefront OBJ Exporter v0.99 - (c)2007 guruware
# File Created: 17.04.2024 15:54:52

mtllib estante.mtl

#
# object eb_metal_shelf_01
#

v  -0.1484 0.4649 -0.0484
v  -0.1448 0.4650 -0.0495
v  -0.1448 0.0000 -0.0495
v  0.1427 0.4666 -0.0372
v  0.1507 0.4649 -0.0415
v  0.1507 0.4649 -0.0453
v  0.1484 0.4649 -0.0484
v  0.1390 0.4649 -0.0453
v  0.1390 0.4649 -0.0415
v  0.1412 0.4649 -0.0484
v  0.1448 0.4649 -0.0495
v  -0.1441 0.0323 0.0588
v  -0.1441 0.0323 -0.0448
v  -0.1441 0.0295 -0.0448
v  -0.1368 0.0295 -0.0376
v  -0.1441 0.0295 0.0588
v  -0.1368 0.0323 -0.0376
v  -0.1368 0.0295 0.0515
v  0.1442 0.0295 -0.0448
v  0.1369 0.0295 -0.0376
v  0.1369 0.0323 -0.0376
v  0.1369 0.4460 0.0515
v  0.1369 0.4460 -0.0376
v  0.1369 0.4432 -0.0376
v  0.1442 0.4460 -0.0448
v  0.1484 0.4649 -0.0384
v  0.1484 0.0000 -0.0384
v  0.1448 0.0003 -0.0373
v  0.1507 0.0000 -0.0415
v  0.1507 0.0000 -0.0453
v  0.1484 0.0000 -0.0484
v  0.1412 0.0000 -0.0484
v  0.1448 0.0000 -0.0495
v  -0.1368 0.0323 0.0515
v  -0.1368 0.0312 -0.0376
v  -0.1368 0.0312 0.0515
v  0.1369 0.0312 0.0515
v  0.1369 0.0295 0.0515
v  0.1442 0.0295 0.0588
v  0.1442 0.0323 0.0588
v  0.1442 0.0323 -0.0448
v  0.1369 0.0312 -0.0376
v  0.1369 0.0323 0.0515
v  -0.1441 0.1357 0.0588
v  -0.1441 0.1357 -0.0448
v  -0.1441 0.1330 -0.0448
v  -0.1368 0.1330 -0.0376
v  -0.1441 0.1330 0.0588
v  -0.1368 0.1357 -0.0376
v  -0.1368 0.1330 0.0515
v  0.1390 0.0000 -0.0415
v  0.1390 0.0000 -0.0453
v  0.1442 0.1357 -0.0448
v  0.1442 0.1357 0.0588
v  0.1442 0.1330 0.0588
v  0.1369 0.1357 0.0515
v  0.1369 0.1330 0.0515
v  0.1442 0.1330 -0.0448
v  0.1369 0.1330 -0.0376
v  0.1412 0.0000 -0.0384
v  0.1369 0.1357 -0.0376
v  -0.1368 0.1357 0.0515
v  -0.1368 0.1346 0.0515
v  0.1369 0.1346 0.0515
v  -0.1368 0.1346 -0.0376
v  0.1369 0.1346 -0.0376
v  0.1442 0.4460 0.0588
v  0.1442 0.4432 0.0588
v  0.1369 0.4432 0.0515
v  0.1442 0.4432 -0.0448
v  -0.1484 0.0000 -0.0484
v  -0.1412 0.0003 -0.0484
v  -0.1507 0.0000 -0.0453
v  -0.1507 0.0000 -0.0415
v  -0.1390 0.0000 -0.0453
v  -0.1390 0.0000 -0.0415
v  -0.1390 0.0000 0.0592
v  -0.1390 0.4649 0.0592
v  -0.1412 0.0000 0.0622
v  -0.1412 0.4649 0.0622
v  -0.1448 0.0000 0.0634
v  -0.1448 0.4649 0.0634
v  -0.1484 0.0000 0.0622
v  -0.1484 0.4649 0.0622
v  -0.1507 0.0000 0.0592
v  -0.1390 0.0000 0.0554
v  -0.1390 0.4649 0.0554
v  -0.1412 0.0003 0.0523
v  -0.1412 0.4649 0.0523
v  -0.1507 0.4649 0.0592
v  -0.1507 0.0000 0.0554
v  -0.1507 0.4649 0.0554
v  -0.1484 0.0000 0.0523
v  -0.1448 0.0000 0.0511
v  -0.1448 0.4649 0.0511
v  -0.1484 0.4650 0.0523
v  -0.1412 0.0000 -0.0384
v  -0.1412 0.4649 -0.0384
v  -0.1448 0.0000 -0.0373
v  -0.1390 0.4649 -0.0415
v  -0.1448 0.4649 -0.0373
v  -0.1484 0.0000 -0.0384
v  -0.1484 0.4649 -0.0384
v  -0.1390 0.4649 -0.0453
v  -0.1412 0.4649 -0.0484
v  -0.1507 0.4649 -0.0415
v  -0.1507 0.4649 -0.0453
v  -0.1441 0.4432 0.0588
v  -0.1368 0.4460 0.0515
v  -0.1368 0.4432 0.0515
v  0.1369 0.4448 -0.0376
v  -0.1368 0.4448 -0.0376
v  0.1369 0.4448 0.0515
v  -0.1368 0.4432 -0.0376
v  -0.1441 0.4460 -0.0448
v  -0.1441 0.4432 -0.0448
v  -0.1441 0.4460 0.0588
v  -0.1368 0.4448 0.0515
v  -0.1368 0.4460 -0.0376
v  0.1442 0.3425 0.0588
v  0.1369 0.3425 0.0515
v  -0.1368 0.3425 0.0515
v  0.1442 0.3398 0.0588
v  -0.1441 0.3398 0.0588
v  -0.1368 0.3398 0.0515
v  0.1369 0.3398 0.0515
v  0.1369 0.3414 -0.0376
v  -0.1368 0.3414 -0.0376
v  0.1369 0.3414 0.0515
v  0.1442 0.3425 -0.0448
v  -0.1441 0.3425 -0.0448
v  0.1369 0.3425 -0.0376
v  0.1369 0.3398 -0.0376
v  -0.1368 0.3398 -0.0376
v  0.1442 0.3398 -0.0448
v  -0.1441 0.3398 -0.0448
v  0.1442 0.2364 0.0588
v  0.1442 0.2391 0.0588
v  -0.1441 0.2391 0.0588
v  0.1369 0.2391 0.0515
v  -0.1441 0.2364 0.0588
v  0.1369 0.2364 0.0515
v  -0.1368 0.2364 0.0515
v  0.1369 0.2380 0.0515
v  0.1369 0.2380 -0.0376
v  -0.1368 0.2380 0.0515
v  0.1369 0.2364 -0.0376
v  0.1369 0.2391 -0.0376
v  -0.1368 0.2391 -0.0376
v  0.1442 0.2391 -0.0448
v  0.1442 0.2364 -0.0448
v  -0.1368 0.2364 -0.0376
v  -0.1441 0.2364 -0.0448
v  -0.1441 0.3425 0.0588
v  -0.1368 0.3414 0.0515
v  -0.1368 0.3425 -0.0376
v  -0.1368 0.2391 0.0515
v  -0.1441 0.2391 -0.0448
v  -0.1368 0.2380 -0.0376
v  0.1507 0.0000 0.0592
v  0.1507 0.4649 0.0592
v  0.1484 0.0000 0.0622
v  0.1484 0.4649 0.0622
v  0.1448 0.0000 0.0634
v  0.1448 0.4650 0.0634
v  0.1412 0.0003 0.0623
v  0.1390 0.4649 0.0592
v  0.1390 0.4649 0.0554
v  0.1390 0.0000 0.0554
v  0.1412 0.4649 0.0622
v  0.1390 0.0000 0.0592
v  0.1412 0.4649 0.0523
v  0.1448 0.4649 0.0511
v  0.1448 0.0000 0.0511
v  0.1484 0.4649 0.0523
v  0.1484 0.0000 0.0523
v  0.1412 0.0000 0.0523
v  0.1507 0.4649 0.0554
v  0.1507 0.0000 0.0554
# 179 vertices

vn -0.3082 0.0000 -0.9513
vn 0.2045 0.9789 0.0000
vn 0.1189 0.9891 -0.0863
vn -0.4068 0.9135 0.0000
vn -0.1692 0.9779 -0.1229
vn 0.0411 0.9911 -0.1265
vn -0.0459 0.9889 -0.1411
vn -1.0000 0.0000 0.0000
vn -0.0000 -1.0000 -0.0000
vn 0.0000 1.0000 0.0000
vn 1.0000 0.0000 0.0000
vn 0.0000 0.0000 -1.0000
vn 0.0000 -1.0000 0.0000
vn 0.0000 0.0000 1.0000
vn -0.0000 1.0000 0.0000
vn 0.8090 0.0000 0.5878
vn 0.2084 0.0009 0.9781
vn 0.8090 0.0000 -0.5878
vn 0.3090 0.0000 -0.9511
vn -0.8090 0.0000 -0.5878
vn -0.3090 0.0000 -0.9511
vn -0.7545 0.0000 0.6563
vn 0.3118 0.0000 0.9502
vn -0.3116 -0.0015 0.9502
vn -0.8090 0.0011 0.5878
vn 0.0069 -0.9998 0.0213
vn -0.0069 -0.9998 0.0213
vn 0.0224 -0.9996 0.0163
vn 0.0448 -0.9990 0.0000
vn -0.0224 -0.9996 0.0163
vn -0.0448 -0.9990 -0.0000
vn 0.0945 -0.9932 -0.0687
vn -0.0946 -0.9931 -0.0687
vn 0.0362 -0.9931 0.1114
vn 0.0363 -0.9990 0.0264
vn 0.0277 -0.9996 0.0000
vn -0.1172 -0.9931 -0.0000
vn 0.3090 0.0000 0.9511
vn -0.3090 0.0000 0.9511
vn -0.8090 0.0000 0.5878
vn 0.8107 0.0000 -0.5855
vn 0.3062 0.0000 -0.9520
vn 0.0182 -0.9997 -0.0132
vn 0.0069 -0.9997 -0.0213
vn 0.8107 0.0000 -0.5854
vn 0.3063 0.0000 -0.9519
vn -0.0086 -0.9996 -0.0264
vn -0.0363 -0.9990 -0.0264
vn 0.0364 -0.9990 0.0264
vn 0.0363 -0.9931 0.1116
vn 0.0278 -0.9996 0.0000
vn -0.1173 -0.9931 -0.0000
vn 0.0069 -0.9997 -0.0214
vn 0.3161 0.9205 0.2297
vn 0.3084 0.0000 -0.9513
vn 0.0047 1.0000 0.0034
vn 0.0018 1.0000 0.0056
vn -0.0022 1.0000 0.0069
vn -0.0095 0.9999 0.0069
vn -0.3097 0.0000 -0.9508
vn -0.8085 0.0000 -0.5884
vn 0.0072 1.0000 0.0000
vn 0.0095 0.9999 -0.0069
vn -0.0307 0.9995 0.0000
vn 0.0095 0.9995 -0.0291
vn 0.0058 1.0000 0.0043
vn -0.0018 1.0000 0.0056
vn -0.0058 1.0000 0.0043
vn 0.0117 0.9999 0.0000
vn 0.0248 0.9995 -0.0180
vn -0.0118 0.9999 0.0000
vn -0.0248 0.9995 -0.0180
vn -0.3063 0.0000 0.9519
vn -0.3083 0.0000 0.9513
vn 0.3082 0.0000 0.9513
vn -0.8107 0.0000 0.5854
vn 0.0086 -0.9996 0.0263
vn 0.0362 -0.9990 0.0263
vn -0.0069 -0.9997 0.0213
vn -0.0362 -0.9990 -0.0263
vn -0.0361 -0.9931 -0.1112
vn -0.0277 -0.9996 -0.0000
vn -0.0181 -0.9997 0.0132
vn -0.0181 -0.9998 0.0132
vn 0.1169 -0.9931 0.0000
vn -0.0018 1.0000 -0.0056
vn -0.0058 1.0000 -0.0042
vn 0.0018 1.0000 -0.0056
vn -0.0117 0.9999 0.0000
vn 0.0058 1.0000 -0.0042
vn -0.0247 0.9995 0.0180
vn 0.0247 0.9995 0.0179
# 92 vertex normals

vt 0.0950 0.9936 0.0000
vt 0.0887 0.9937 0.0000
vt 0.0887 0.0093 0.0000
vt 0.2178 0.2783 0.0000
vt 0.1445 0.2090 0.0000
vt 0.1566 0.1680 0.0000
vt 0.1906 0.1416 0.0000
vt 0.2832 0.2051 0.0000
vt 0.2710 0.2461 0.0000
vt 0.2688 0.1646 0.0000
vt 0.2334 0.1406 0.0000
vt 0.6167 0.7117 0.0000
vt 0.6167 0.9877 0.0000
vt 0.6094 0.9877 0.0000
vt 0.6333 0.6995 0.0000
vt 0.6084 0.6743 0.0000
vt 0.6333 0.3413 0.0000
vt 0.6641 0.0044 0.0000
vt 0.6641 0.3623 0.0000
vt 0.6392 0.0293 0.0000
vt 0.6348 0.7117 0.0000
vt 0.6421 0.7117 0.0000
vt 0.6348 0.9492 0.0000
vt 0.5713 0.9980 0.0000
vt 0.5615 0.9980 0.0000
vt 0.5713 0.0020 0.0000
vt 0.4421 0.0269 0.0000
vt 0.4421 0.9730 0.0000
vt 0.4170 0.9980 0.0000
vt 0.5381 0.9980 0.0000
vt 0.5127 0.9730 0.0000
vt 0.5127 0.0269 0.0000
vt 0.6040 0.0020 0.0000
vt 0.6040 0.9480 0.0000
vt 0.5942 0.9480 0.0000
vt 0.6548 0.7117 0.0000
vt 0.6548 0.9492 0.0000
vt 0.6475 0.9492 0.0000
vt 0.6084 0.0044 0.0000
vt 0.6338 0.0293 0.0000
vt 0.6338 0.3369 0.0000
vt 0.0327 0.9936 0.0000
vt 0.0265 0.9936 0.0000
vt 0.0265 0.0093 0.0000
vt 0.0169 0.9971 0.0000
vt 0.0202 0.0098 0.0000
vt 0.0390 0.9936 0.0000
vt 0.0327 0.0093 0.0000
vt 0.0453 0.9936 0.0000
vt 0.0390 0.0093 0.0000
vt 0.0515 0.9936 0.0000
vt 0.0453 0.0093 0.0000
vt 0.0640 0.9936 0.0000
vt 0.0578 0.9936 0.0000
vt 0.0578 0.0093 0.0000
vt 0.0515 0.0093 0.0000
vt 0.6421 0.9492 0.0000
vt 0.6094 0.7117 0.0000
vt 0.6084 0.3667 0.0000
vt 0.6392 0.3369 0.0000
vt 0.9893 0.9852 0.0000
vt 0.6733 0.9852 0.0000
vt 0.6733 0.0146 0.0000
vt 0.5874 0.9480 0.0000
vt 0.5781 0.9480 0.0000
vt 0.5874 0.0020 0.0000
vt 0.4724 0.9980 0.0000
vt 0.4473 0.9730 0.0000
vt 0.4724 0.0020 0.0000
vt 0.4797 0.9980 0.0000
vt 0.4797 0.0020 0.0000
vt 0.5049 0.9730 0.0000
vt 0.5547 0.0020 0.0000
vt 0.5547 0.9980 0.0000
vt 0.5449 0.9980 0.0000
vt 0.4170 0.0020 0.0000
vt 0.5615 0.0020 0.0000
vt 0.5381 0.0020 0.0000
vt 0.5942 0.0020 0.0000
vt 0.9893 0.0146 0.0000
vt 0.5781 0.0020 0.0000
vt 0.4473 0.0269 0.0000
vt 0.5049 0.0269 0.0000
vt 0.5449 0.0020 0.0000
vt 0.6294 0.7117 0.0000
vt 0.6294 0.9877 0.0000
vt 0.6221 0.9877 0.0000
vt 0.6387 0.3413 0.0000
vt 0.6636 0.3667 0.0000
vt 0.6387 0.6995 0.0000
vt 0.6475 0.7117 0.0000
vt 0.6084 0.3623 0.0000
vt 0.0171 0.9971 0.0000
vt 0.0077 0.9936 0.0000
vt 0.0077 0.0093 0.0000
vt 0.0703 0.9936 0.0000
vt 0.0640 0.0093 0.0000
vt 0.0170 0.9971 0.0000
vt 0.0140 0.0093 0.0000
vt 0.6221 0.7117 0.0000
vt 0.6636 0.6743 0.0000
vt 0.0703 0.0093 0.0000
vt 0.2330 0.1392 0.0000
vt 0.1902 0.1392 0.0000
vt 0.2339 0.0044 0.0000
vt 0.1555 0.1138 0.0000
vt 0.2678 0.1138 0.0000
vt 0.2810 0.0732 0.0000
vt 0.1423 0.0732 0.0000
vt 0.1555 0.0322 0.0000
vt 0.2676 0.0322 0.0000
vt 0.1902 0.0073 0.0000
vt 0.5845 0.9512 0.0000
vt 0.5952 0.9512 0.0000
vt 0.6040 0.9568 0.0000
vt 0.5757 0.9575 0.0000
vt 0.5723 0.9676 0.0000
vt 0.6069 0.9676 0.0000
vt 0.6035 0.9778 0.0000
vt 0.0140 0.0098 0.0000
vt 0.0140 0.9936 0.0000
vt 0.0202 0.0093 0.0000
vt 0.0202 0.9936 0.0000
vt 0.0265 0.9937 0.0000
vt 0.1263 0.0093 0.0000
vt 0.1263 0.9936 0.0000
vt 0.1201 0.0093 0.0000
vt 0.1326 0.0093 0.0000
vt 0.1326 0.9936 0.0000
vt 0.1201 0.9936 0.0000
vt 0.1138 0.0093 0.0000
vt 0.1138 0.9936 0.0000
vt 0.1075 0.0093 0.0000
vt 0.1388 0.0093 0.0000
vt 0.1388 0.9936 0.0000
vt 0.5757 0.9778 0.0000
vt 0.5845 0.9840 0.0000
vt 0.0825 0.0098 0.0000
vt 0.0825 0.9936 0.0000
vt 0.0762 0.0093 0.0000
vt 0.1075 0.9936 0.0000
vt 0.1013 0.0093 0.0000
vt 0.5952 0.9840 0.0000
vt 0.3203 0.9615 0.0000
vt 0.3289 0.9552 0.0000
vt 0.3484 0.9608 0.0000
vt 0.3396 0.9552 0.0000
vt 0.3171 0.9716 0.0000
vt 0.3516 0.9716 0.0000
vt 0.3481 0.9817 0.0000
vt 0.3203 0.9817 0.0000
vt 0.3289 0.9880 0.0000
vt 0.3396 0.9880 0.0000
vt 0.0950 0.0093 0.0000
vt 0.1013 0.9936 0.0000
vt 0.1589 0.2495 0.0000
vt 0.0762 0.9936 0.0000
vt 0.3806 0.9791 0.0000
vt 0.4077 0.9588 0.0000
vt 0.4111 0.9688 0.0000
vt 0.3989 0.9528 0.0000
vt 0.3882 0.9531 0.0000
vt 0.3799 0.9596 0.0000
vt 0.4082 0.9790 0.0000
vt 0.3999 0.9855 0.0000
vt 0.3767 0.9698 0.0000
vt 0.3892 0.9858 0.0000
vt 0.6470 0.9857 0.0000
vt 0.6655 0.9594 0.0000
vt 0.6689 0.9694 0.0000
vt 0.6567 0.9534 0.0000
vt 0.6460 0.9536 0.0000
vt 0.6377 0.9601 0.0000
vt 0.6660 0.9796 0.0000
vt 0.6577 0.9861 0.0000
vt 0.6348 0.9704 0.0000
vt 0.6382 0.9804 0.0000
vt 0.2238 0.0020 0.0000
vt 0.2488 0.0269 0.0000
vt 0.2488 0.9730 0.0000
vt 0.2891 0.0020 0.0000
vt 0.2988 0.0020 0.0000
vt 0.2891 0.9980 0.0000
vt 0.1914 0.9730 0.0000
vt 0.1914 0.0269 0.0000
vt 0.2164 0.0020 0.0000
vt 0.3220 0.9480 0.0000
vt 0.3220 0.0020 0.0000
vt 0.3315 0.0020 0.0000
vt 0.2820 0.0020 0.0000
vt 0.2820 0.9980 0.0000
vt 0.2571 0.0269 0.0000
vt 0.3384 0.0020 0.0000
vt 0.3481 0.0020 0.0000
vt 0.3384 0.9480 0.0000
vt 0.3057 0.9980 0.0000
vt 0.3057 0.0020 0.0000
vt 0.3152 0.0020 0.0000
vt 0.1613 0.0020 0.0000
vt 0.1863 0.0269 0.0000
vt 0.1613 0.9980 0.0000
vt 0.2238 0.9980 0.0000
vt 0.2988 0.9980 0.0000
vt 0.2164 0.9980 0.0000
vt 0.3315 0.9480 0.0000
vt 0.4082 0.3623 0.0000
vt 0.3833 0.3369 0.0000
vt 0.3833 0.0293 0.0000
vt 0.3525 0.6743 0.0000
vt 0.3525 0.3667 0.0000
vt 0.3777 0.3413 0.0000
vt 0.3535 0.7039 0.0000
vt 0.3611 0.7039 0.0000
vt 0.3535 0.9799 0.0000
vt 0.3862 0.7039 0.0000
vt 0.3862 0.9413 0.0000
vt 0.3789 0.9413 0.0000
vt 0.2571 0.9730 0.0000
vt 0.3481 0.9480 0.0000
vt 0.1863 0.9730 0.0000
vt 0.3152 0.9980 0.0000
vt 0.4082 0.0044 0.0000
vt 0.3789 0.7039 0.0000
vt 0.3777 0.6995 0.0000
vt 0.3611 0.9799 0.0000
vt 0.3916 0.7039 0.0000
vt 0.3916 0.9413 0.0000
vt 0.3989 0.7039 0.0000
vt 0.3662 0.9799 0.0000
vt 0.3738 0.9799 0.0000
vt 0.3738 0.7039 0.0000
vt 0.3828 0.3413 0.0000
vt 0.3828 0.6995 0.0000
vt 0.4077 0.3667 0.0000
vt 0.3525 0.3623 0.0000
vt 0.3777 0.3369 0.0000
vt 0.3525 0.0044 0.0000
vt 0.3989 0.9413 0.0000
vt 0.4077 0.6743 0.0000
vt 0.3777 0.0293 0.0000
vt 0.3662 0.7039 0.0000
vt 0.2330 0.4121 0.0000
vt 0.1902 0.4121 0.0000
vt 0.2686 0.3027 0.0000
vt 0.2678 0.3867 0.0000
vt 0.1555 0.3867 0.0000
vt 0.1555 0.3052 0.0000
vt 0.1902 0.2803 0.0000
vt 0.2330 0.2803 0.0000
vt 0.1423 0.3462 0.0000
vt 0.2810 0.3462 0.0000
vt 0.1951 0.5439 0.0000
vt 0.2334 0.4136 0.0000
vt 0.2688 0.4380 0.0000
vt 0.2832 0.4780 0.0000
vt 0.1906 0.4150 0.0000
vt 0.2710 0.5193 0.0000
vt 0.1566 0.4409 0.0000
vt 0.1445 0.4819 0.0000
vt 0.2372 0.5454 0.0000
vt 0.1589 0.5225 0.0000
# 261 texture coords

o eb_metal_shelf_01
g eb_metal_shelf_01
usemtl Material__36
s off
f 1/1/1 2/2/1 3/3/1 
f 4/4/2 5/5/2 6/6/2 
f 4/4/3 6/6/3 7/7/3 
f 4/4/4 8/8/4 9/9/4 
f 4/4/5 10/10/5 8/8/5 
f 4/4/6 7/7/6 11/11/6 
f 4/4/7 11/11/7 10/10/7 
f 12/12/8 13/13/8 14/14/8 
f 14/15/9 15/16/9 16/17/9 
f 13/18/10 12/19/10 17/20/10 
f 15/21/11 17/22/11 18/23/11 
f 14/24/12 13/25/12 19/26/12 
f 20/27/13 15/28/13 14/29/13 
f 13/30/10 17/31/10 21/32/10 
f 21/33/14 17/34/14 15/35/14 
f 22/36/8 23/37/8 24/38/8 
f 25/39/15 23/40/15 22/41/15 
f 5/42/16 26/43/16 27/44/16 
f 26/43/17 4/45/17 28/46/17 
f 6/47/11 5/42/11 29/48/11 
f 7/49/18 6/47/18 30/50/18 
f 11/51/19 7/49/19 31/52/19 
f 8/53/20 10/54/20 32/55/20 
f 10/54/21 11/51/21 33/56/21 
f 17/22/11 34/57/11 18/23/11 
f 16/58/8 12/12/8 14/14/8 
f 15/16/13 18/59/13 16/17/13 
f 12/19/15 34/60/15 17/20/15 
f 35/61/10 36/62/10 37/63/10 
f 18/64/12 34/65/12 38/66/12 
f 16/67/13 18/68/13 39/69/13 
f 12/70/10 40/71/10 34/72/10 
f 40/73/14 12/74/14 16/75/14 
f 19/76/13 20/27/13 14/29/13 
f 13/25/12 41/77/12 19/26/12 
f 41/78/10 13/30/10 21/32/10 
f 20/79/14 21/33/14 15/35/14 
f 42/80/10 35/61/10 37/63/10 
f 34/65/12 43/81/12 38/66/12 
f 18/68/13 38/82/13 39/69/13 
f 40/71/10 43/83/10 34/72/10 
f 39/84/14 40/73/14 16/75/14 
f 44/85/8 45/86/8 46/87/8 
f 46/88/13 47/89/13 48/90/13 
f 47/91/11 49/36/11 50/38/11 
f 45/92/10 44/39/10 49/41/10 
f 4/93/22 9/94/22 51/95/22 
f 9/96/8 8/53/8 52/97/8 
f 53/12/11 54/13/11 55/14/11 
f 54/18/15 53/19/15 56/20/15 
f 55/15/13 57/16/13 58/17/13 
f 57/21/8 56/22/8 59/23/8 
f 29/48/16 5/42/16 27/44/16 
f 27/44/23 26/43/23 28/46/23 
f 28/46/24 4/98/24 60/99/24 
f 60/99/25 4/93/25 51/95/25 
f 46/84/12 45/73/12 58/75/12 
f 59/68/13 47/82/13 46/69/13 
f 45/71/10 49/83/10 61/72/10 
f 61/65/14 49/81/14 47/66/14 
f 49/36/11 62/37/11 50/38/11 
f 48/100/8 44/85/8 46/87/8 
f 47/89/13 50/101/13 48/90/13 
f 44/39/10 62/40/10 49/41/10 
f 30/50/11 6/47/11 29/48/11 
f 31/52/18 7/49/18 30/50/18 
f 33/56/19 11/51/19 31/52/19 
f 32/55/21 10/54/21 33/56/21 
f 58/58/11 53/12/11 55/14/11 
f 51/102/8 9/96/8 52/97/8 
f 52/97/20 8/53/20 32/55/20 
f 56/22/8 61/57/8 59/23/8 
f 53/19/10 61/60/10 56/20/10 
f 57/16/13 59/59/13 58/17/13 
f 63/80/10 64/61/10 65/63/10 
f 50/79/12 62/33/12 57/35/12 
f 48/76/13 50/27/13 55/29/13 
f 44/78/10 54/30/10 62/32/10 
f 54/25/14 44/77/14 48/26/14 
f 58/67/13 59/68/13 46/69/13 
f 45/73/12 53/74/12 58/75/12 
f 53/70/10 45/71/10 61/72/10 
f 59/64/14 61/65/14 47/66/14 
f 64/61/10 66/62/10 65/63/10 
f 62/33/12 56/34/12 57/35/12 
f 50/27/13 57/28/13 55/29/13 
f 55/24/14 54/25/14 48/26/14 
f 54/30/10 56/31/10 62/32/10 
f 38/89/13 20/101/13 19/90/13 
f 41/39/10 21/40/10 43/41/10 
f 43/36/8 21/37/8 20/38/8 
f 32/103/26 33/104/26 28/105/26 
f 33/104/27 31/106/27 28/105/27 
f 52/107/28 32/103/28 28/105/28 
f 51/108/29 52/107/29 28/105/29 
f 31/106/30 30/109/30 28/105/30 
f 30/109/31 29/110/31 28/105/31 
f 60/111/32 51/108/32 28/105/32 
f 29/110/33 27/112/33 28/105/33 
f 19/100/11 41/85/11 39/87/11 
f 38/91/8 43/36/8 20/38/8 
f 41/85/11 40/86/11 39/87/11 
f 40/92/15 41/39/15 43/41/15 
f 39/88/13 38/89/13 19/90/13 
f 25/85/11 67/86/11 68/87/11 
f 68/88/13 69/89/13 70/90/13 
f 69/91/8 22/36/8 24/38/8 
f 70/100/11 25/85/11 68/87/11 
f 71/113/34 3/114/34 72/115/34 
f 73/116/35 71/113/35 72/115/35 
f 74/117/36 73/116/36 72/115/36 
f 75/118/37 76/119/37 72/115/37 
f 77/97/16 78/53/16 79/55/16 
f 79/55/38 80/54/38 81/56/38 
f 81/56/39 82/51/39 83/52/39 
f 83/52/40 84/49/40 85/50/40 
f 86/102/11 87/96/11 77/97/11 
f 88/120/41 89/121/41 86/95/41 
f 85/50/8 90/47/8 91/48/8 
f 91/48/20 92/42/20 93/44/20 
f 94/122/42 95/123/42 88/120/42 
f 93/44/21 96/124/21 94/122/21 
f 97/125/38 98/126/38 99/127/38 
f 76/128/16 100/129/16 97/125/16 
f 99/127/39 101/130/39 102/131/39 
f 102/131/40 103/132/40 74/133/40 
f 75/134/11 104/135/11 76/128/11 
f 102/136/43 74/117/43 72/115/43 
f 99/137/44 102/136/44 72/115/44 
f 72/138/45 105/139/45 75/140/45 
f 74/133/8 106/141/8 73/142/8 
f 3/3/46 2/2/46 72/138/46 
f 97/143/47 99/137/47 72/115/47 
f 76/119/48 97/143/48 72/115/48 
f 91/144/49 93/145/49 88/146/49 
f 93/145/50 94/147/50 88/146/50 
f 69/89/13 24/101/13 70/90/13 
f 85/148/51 91/144/51 88/146/51 
f 86/149/52 77/150/52 88/146/52 
f 83/151/43 85/148/43 88/146/43 
f 81/152/53 83/151/53 88/146/53 
f 79/153/47 81/152/47 88/146/47 
f 77/150/48 79/153/48 88/146/48 
f 71/154/21 1/1/21 3/3/21 
f 73/142/20 107/155/20 71/154/20 
f 68/84/14 67/73/14 108/75/14 
f 67/71/10 22/83/10 109/72/10 
f 110/68/13 69/82/13 68/69/13 
f 109/65/12 22/81/12 69/66/12 
f 111/80/10 112/61/10 113/63/10 
f 24/79/14 23/33/14 114/35/14 
f 25/78/10 115/30/10 23/32/10 
f 115/25/12 25/77/12 70/26/12 
f 70/76/13 24/27/13 116/29/13 
f 117/70/10 67/71/10 109/72/10 
f 107/155/20 1/1/20 71/154/20 
f 4/4/54 26/156/54 5/5/54 
f 106/141/8 107/155/8 73/142/8 
f 2/2/55 105/139/55 72/138/55 
f 105/139/18 104/157/18 75/140/18 
f 104/135/11 100/129/11 76/128/11 
f 103/132/40 106/141/40 74/133/40 
f 101/130/39 103/132/39 102/131/39 
f 98/126/38 101/130/38 99/127/38 
f 100/129/16 98/126/16 97/125/16 
f 67/73/14 117/74/14 108/75/14 
f 108/67/13 110/68/13 68/69/13 
f 110/64/12 109/65/12 69/66/12 
f 112/61/10 118/62/10 113/63/10 
f 96/158/56 80/159/56 78/160/56 
f 96/158/57 82/161/57 80/159/57 
f 96/158/58 84/162/58 82/161/58 
f 96/158/59 90/163/59 84/162/59 
f 96/124/60 95/123/60 94/122/60 
f 95/123/19 89/121/19 88/120/19 
f 92/42/61 96/124/61 93/44/61 
f 90/47/8 92/42/8 91/48/8 
f 89/121/18 87/94/18 86/95/18 
f 87/96/11 78/53/11 77/97/11 
f 84/49/40 90/47/40 85/50/40 
f 82/51/39 84/49/39 83/52/39 
f 80/54/38 82/51/38 81/56/38 
f 78/53/16 80/54/16 79/55/16 
f 96/158/62 78/160/62 87/164/62 
f 96/158/63 87/164/63 89/165/63 
f 96/158/64 92/166/64 90/163/64 
f 96/158/65 89/165/65 95/167/65 
f 117/19/10 109/60/10 119/20/10 
f 108/58/8 117/12/8 116/14/8 
f 114/16/13 110/59/13 108/17/13 
f 119/22/11 109/57/11 110/23/11 
f 23/33/14 119/34/14 114/35/14 
f 115/30/10 119/31/10 23/32/10 
f 116/24/12 115/25/12 70/26/12 
f 24/27/13 114/28/13 116/29/13 
f 114/21/11 119/22/11 110/23/11 
f 115/18/15 117/19/15 119/20/15 
f 117/12/8 115/13/8 116/14/8 
f 116/15/13 114/16/13 108/17/13 
f 2/168/66 98/169/66 100/170/66 
f 2/168/57 101/171/57 98/169/57 
f 2/168/67 103/172/67 101/171/67 
f 2/168/68 106/173/68 103/172/68 
f 2/168/69 100/170/69 104/174/69 
f 2/168/70 104/174/70 105/175/70 
f 2/168/71 107/176/71 106/173/71 
f 2/168/72 1/177/72 107/176/72 
f 120/178/10 121/179/10 122/180/10 
f 123/181/14 120/182/14 124/183/14 
f 125/184/13 126/185/13 123/186/13 
f 122/187/12 121/188/12 126/189/12 
f 127/80/10 128/61/10 129/63/10 
f 130/190/10 131/191/10 132/192/10 
f 133/193/14 132/194/14 134/195/14 
f 131/196/12 130/197/12 135/198/12 
f 135/199/13 133/200/13 136/201/13 
f 137/198/14 138/197/14 139/196/14 
f 138/190/10 140/192/10 139/191/10 
f 137/199/13 141/201/13 142/200/13 
f 142/193/12 143/195/12 140/194/12 
f 144/80/10 145/63/10 146/61/10 
f 147/189/14 148/188/14 149/187/14 
f 149/180/10 148/179/10 150/178/10 
f 151/186/13 147/185/13 152/184/13 
f 151/181/12 153/183/12 150/182/12 
f 154/202/10 120/178/10 122/180/10 
f 120/182/14 154/203/14 124/183/14 
f 124/204/13 125/184/13 123/186/13 
f 125/205/12 122/187/12 126/189/12 
f 128/61/10 155/62/10 129/63/10 
f 154/206/10 122/207/10 156/208/10 
f 134/209/9 125/210/9 124/211/9 
f 124/212/8 154/213/8 136/214/8 
f 156/215/11 122/216/11 125/217/11 
f 131/191/10 156/218/10 132/192/10 
f 132/194/14 156/219/14 134/195/14 
f 133/200/13 134/220/13 136/201/13 
f 136/221/12 131/196/12 135/198/12 
f 131/222/10 154/206/10 156/208/10 
f 134/223/11 156/215/11 125/217/11 
f 136/224/13 134/209/13 124/211/13 
f 154/213/8 131/225/8 136/214/8 
f 141/221/14 137/198/14 139/196/14 
f 140/192/10 157/218/10 139/191/10 
f 141/201/13 143/220/13 142/200/13 
f 143/195/12 157/219/12 140/194/12 
f 141/214/8 139/225/8 158/213/8 
f 143/223/11 152/217/11 157/215/11 
f 139/222/10 157/208/10 158/206/10 
f 141/224/9 153/211/9 143/209/9 
f 145/63/10 159/62/10 146/61/10 
f 152/205/14 147/189/14 149/187/14 
f 147/226/8 142/227/8 148/228/8 
f 151/229/11 150/230/11 138/231/11 
f 151/232/13 137/233/13 147/234/13 
f 150/235/10 148/236/10 138/237/10 
f 142/227/8 140/238/8 148/228/8 
f 137/233/9 142/239/9 147/234/9 
f 148/236/10 140/240/10 138/237/10 
f 137/241/11 151/229/11 138/231/11 
f 158/202/10 149/180/10 150/178/10 
f 153/183/12 158/203/12 150/182/12 
f 126/234/13 133/239/13 135/233/13 
f 121/228/8 132/238/8 133/227/8 
f 130/237/10 132/240/10 121/236/10 
f 153/204/13 151/186/13 152/184/13 
f 152/217/11 149/216/11 157/215/11 
f 157/208/10 149/207/10 158/206/10 
f 153/211/13 152/210/13 143/209/13 
f 153/212/8 141/214/8 158/213/8 
f 160/142/16 161/155/16 162/154/16 
f 162/154/38 163/1/38 164/3/38 
f 164/3/73 165/2/73 166/138/73 
f 135/241/11 130/231/11 123/229/11 
f 167/135/8 168/129/8 169/128/8 
f 170/139/40 167/157/40 171/140/40 
f 126/226/8 121/228/8 133/227/8 
f 172/126/21 173/130/21 174/127/21 
f 173/130/19 175/132/19 176/131/19 
f 168/129/20 172/126/20 177/125/20 
f 175/132/18 178/141/18 179/133/18 
f 178/141/11 161/155/11 160/142/11 
f 165/2/74 170/139/74 166/138/74 
f 163/1/75 165/2/75 164/3/75 
f 161/155/16 163/1/16 162/154/16 
f 123/232/13 126/234/13 135/233/13 
f 120/235/15 130/237/15 121/236/15 
f 130/231/11 120/230/11 123/229/11 
f 166/138/76 170/139/76 171/140/76 
f 179/133/11 178/141/11 160/142/11 
f 176/131/18 175/132/18 179/133/18 
f 174/127/19 173/130/19 176/131/19 
f 177/125/21 172/126/21 174/127/21 
f 171/134/8 167/135/8 169/128/8 
f 169/128/20 168/129/20 177/125/20 
f 177/242/77 174/243/77 166/244/77 
f 169/245/78 177/242/78 166/244/78 
f 174/243/79 176/246/79 166/244/79 
f 160/247/80 162/248/80 166/244/80 
f 162/248/81 164/249/81 166/244/81 
f 179/250/82 160/247/82 166/244/82 
f 176/246/83 179/250/83 166/244/84 
f 67/92/10 25/39/10 22/41/10 
f 171/251/85 169/245/85 166/244/85 
f 165/252/86 173/253/86 172/254/86 
f 165/252/87 172/254/87 168/255/87 
f 165/252/88 175/256/88 173/253/88 
f 165/252/89 168/255/89 167/257/89 
f 165/252/90 178/258/90 175/256/90 
f 165/252/69 161/259/69 178/258/69 
f 165/252/91 167/257/91 170/260/91 
f 165/252/92 163/261/92 161/259/92 
# 0 polygons - 312 triangles

